# xmcd
#
# Track frame offsets: 
#        182
#        14350
#        29745
#        41182
#        56687
#        66935
#        79640
#        97542
#        109857
#        123232
#        136847
#        158977
#        173102
#        188642
#        202087
#        223810
#        235485
#        253787
#        276192
#        298942
#        313190
#
# Disc length: 4365 seconds
#
# Revision: 4
# Processed by: cddbd v1.5.2PL0 Copyright (c) Steve Scherf et al.
# Submitted via: ExactAudioCopyFreeDBPlugin 1.0
#
DISCID=3f110b15
DTITLE=Various Artist - The Jewel-Paula Records Story:  The Blues, Rh
DTITLE=ythm and Blues and Soul Recordings [Capricorn box set]
DYEAR=1993
DGENRE=Rhythm and Blues
TTITLE0=The Carter Brothers - Southern Country Boy
TTITLE1=The Carter Brothers - Booze in the Bottle
TTITLE2=Frank Frost - My Back Scratcher
TTITLE3=Toussaint McCall - Nothing Takes the Place of You
TTITLE4=Peppermint Harris - Bad Bad Whiskey
TTITLE5=Big Mac - Rough Dried Woman, Pt. 1
TTITLE6=Lightnin' Hopkins - Back Door Friend
TTITLE7=Little Joe Blue - Standing on the Threshold
TTITLE8=Ted Taylor - It's Too Late
TTITLE9=Joe Turner - Night Time is the Right Time
TTITLE10=Lightnin' Hopkins - Mr. Charlie, Pts. 1 and 2
TTITLE11=Lowell Fulsom - Sleeper
TTITLE12=Memphis Slim - Born with the Blues
TTITLE13=Sunnyland Slim - Brown Skin Woman
TTITLE14=Lightnin' Hopkins - Little School Girl
TTITLE15=Charles Brown - Trouble Blues
TTITLE16=Lightnin'  Hopkins - My Daddy Was a Preacher Man
TTITLE17=Lightnin'  Hopkins - Death in the Family
TTITLE18=John Lee Hooker - Roll and Tumble
TTITLE19=Roosevelt Sykes - Safety Pin Blues
TTITLE20=Roosevelt Sykes - New Orleans Jump
EXTD=YEAR: 1993
EXTT0=
EXTT1=
EXTT2=
EXTT3=
EXTT4=
EXTT5=
EXTT6=
EXTT7=
EXTT8=
EXTT9=
EXTT10=
EXTT11=
EXTT12=
EXTT13=
EXTT14=
EXTT15=
EXTT16=
EXTT17=
EXTT18=
EXTT19=
EXTT20=
PLAYORDER=
